<svg width="44" height="44" viewBox="0 0 44 44" fill="none" xmlns="http://www.w3.org/2000/svg">
<path d="M18.5625 24.75H6.875C6.51033 24.75 6.16059 24.6051 5.90273 24.3473C5.64487 24.0894 5.5 23.7397 5.5 23.375V12.375C5.5 12.0103 5.64487 11.6606 5.90273 11.4027C6.16059 11.1449 6.51033 11 6.875 11H17.1875C17.5522 11 17.9019 11.1449 18.1598 11.4027C18.4176 11.6606 18.5625 12.0103 18.5625 12.375V27.5C18.5625 29.3234 17.8382 31.072 16.5489 32.3614C15.2595 33.6507 13.5109 34.375 11.6875 34.375" stroke="#DC5C66" stroke-width="3.5" stroke-linecap="round" stroke-linejoin="round"/>
<path d="M38.5 24.75H26.8125C26.4478 24.75 26.0981 24.6051 25.8402 24.3473C25.5824 24.0894 25.4375 23.7397 25.4375 23.375V12.375C25.4375 12.0103 25.5824 11.6606 25.8402 11.4027C26.0981 11.1449 26.4478 11 26.8125 11H37.125C37.4897 11 37.8394 11.1449 38.0973 11.4027C38.3551 11.6606 38.5 12.0103 38.5 12.375V27.5C38.5 29.3234 37.7757 31.072 36.4864 32.3614C35.197 33.6507 33.4484 34.375 31.625 34.375" stroke="#DC5C66" stroke-width="3.5" stroke-linecap="round" stroke-linejoin="round"/>
</svg>
